# xmcd
#
# Track frame offsets:
#	150
#	20035
#	37024
#	52739
#	71286
#	89030
#	108901
#	124868
#	139227
#	158929
#
# Disc length: 2372 seconds
# Revision: 0
# Processed by: cddbd v1.5.2PL0 Copyright (c) Steve Scherf et al.
# Submitted via: dBpowerAMP V12.0
#
DISCID=8809420a
DTITLE=Matt Baxter and Jake Sampson - Haunted
DYEAR=2012
DGENRE=Blues
TTITLE0=Someday
TTITLE1=Dusty Mule
TTITLE2=Haunted 
TTITLE3=Jaime Lynn
TTITLE4=Same Old Pain
TTITLE5=Soul 
TTITLE6=Don't It Make you feel Good
TTITLE7=Little Girl Gone
TTITLE8=Take Me Back Home
TTITLE9=Highway 54 
EXTD=
EXTT0=
EXTT1=
EXTT2=
EXTT3=
EXTT4=
EXTT5=
EXTT6=
EXTT7=
EXTT8=
EXTT9=
PLAYORDER=
